<svg xmlns="http://www.w3.org/2000/svg" viewBox="0 0 32 32" width="32" height="32">
  <circle cx="16" cy="16" r="16" fill="#25D366"/>
  <path d="M16 6C10.48 6 6 10.48 6 16c0 1.85.5 3.58 1.38 5.08L6 26l5.18-1.32C12.58 25.48 14.24 26 16 26c5.52 0 10-4.48 10-10S21.52 6 16 6zm5.91 14.63c-.25.7-1.28 1.3-2.08 1.46-.55.11-1.27.2-3.69-.8-2.58-1.05-4.26-3.74-4.39-3.91-.13-.17-1.06-1.4-1.06-2.68 0-1.28.67-1.91.91-2.17.24-.26.52-.33.69-.33.17 0 .35 0 .5.01.16.01.37-.06.58.44.21.52.72 1.75.78 1.88.06.13.1.28.02.45-.08.17-.12.28-.24.43-.12.15-.25.33-.36.45-.12.15-.24.31-.1.61.14.3.62 1.03 1.33 1.67.92.82 1.69 1.07 1.93 1.19.24.12.38.1.52-.06.14-.16.6-.7.76-.94.16-.24.32-.2.54-.12.22.08 1.4.66 1.64.78.24.12.4.18.46.28.06.1.06.58-.19 1.28z" fill="white"/>
</svg>
